<svg width="20" height="22" viewBox="0 0 20 22" fill="none" xmlns="http://www.w3.org/2000/svg">
<path d="M5.5 2.5C3.9442 2.54667 3.01661 2.71984 2.37477 3.36227C1.49609 4.24177 1.49609 5.6573 1.49609 8.48836L1.49609 14.9944C1.49609 17.8255 1.49609 19.241 2.37477 20.1205C3.25345 21 4.66767 21 7.49609 21L12.4961 21C15.3245 21 16.7387 21 17.6174 20.1205C18.4961 19.241 18.4961 17.8255 18.4961 14.9944V8.48836C18.4961 5.6573 18.4961 4.24177 17.6174 3.36228C16.9756 2.71984 16.048 2.54667 14.4922 2.5" stroke="#323232" stroke-width="1.5"/>
<path d="M5.49609 2.75C5.49609 1.7835 6.2796 1 7.24609 1H12.7461C13.7126 1 14.4961 1.7835 14.4961 2.75C14.4961 3.7165 13.7126 4.5 12.7461 4.5H7.24609C6.2796 4.5 5.49609 3.7165 5.49609 2.75Z" stroke="#323232" stroke-width="1.5" stroke-linejoin="round"/>
<path d="M11.5 10H15" stroke="#323232" stroke-width="1.5" stroke-linecap="round"/>
<path d="M5 11C5 11 5.5 11 6 12C6 12 7.58824 9.5 9 9" stroke="#323232" stroke-width="1.5" stroke-linecap="round" stroke-linejoin="round"/>
<path d="M11.5 16H15" stroke="#323232" stroke-width="1.5" stroke-linecap="round"/>
<path d="M6 16H7" stroke="#323232" stroke-width="2" stroke-linecap="round" stroke-linejoin="round"/>
</svg>
