<svg width="22" height="20" viewBox="0 0 22 20" fill="none" xmlns="http://www.w3.org/2000/svg">
<path d="M1 6C1 7.34178 9.10617 11 11 11C12.8938 11 21 7.34178 21 6C21 4.65822 12.8938 1 11 1C9.10617 1 1 4.65822 1 6Z" stroke="#323232" stroke-width="1.5" stroke-linecap="round" stroke-linejoin="round"/>
<path d="M5 9L5.24545 14.6299C5.25036 14.7426 5.26256 14.8555 5.29528 14.9635C5.39639 15.2973 5.58275 15.6006 5.86707 15.8044C8.09162 17.3985 13.9084 17.3985 16.1329 15.8044C16.4173 15.6006 16.6036 15.2973 16.7047 14.9635C16.7374 14.8555 16.7496 14.7426 16.7546 14.6299L17 9" stroke="#323232" stroke-width="1.5" stroke-linecap="round" stroke-linejoin="round"/>
<path d="M20.25 7.5C20.25 7.08579 19.9142 6.75 19.5 6.75C19.0858 6.75 18.75 7.08579 18.75 7.5H19.5H20.25ZM18.0714 17.7634L18.8011 17.9368L18.0714 17.7634ZM20.9286 17.7634L21.6583 17.5901L20.9286 17.7634ZM19.5 7.5H18.75V14.5072H19.5H20.25V7.5H19.5ZM18.0714 17.7634L18.8011 17.9368C18.946 17.327 19.1952 16.7697 19.4619 16.2478C19.7062 15.7696 20.0263 15.2164 20.1976 14.7827L19.5 14.5072L18.8024 14.2317C18.6655 14.5784 18.4364 14.9581 18.1261 15.5653C17.8382 16.1288 17.5272 16.8095 17.3417 17.5901L18.0714 17.7634ZM20.9286 17.7634L21.6583 17.5901C21.4728 16.8095 21.1618 16.1288 20.8739 15.5653C20.5636 14.9581 20.3345 14.5784 20.1976 14.2317L19.5 14.5072L18.8024 14.7827C18.9737 15.2164 19.2938 15.7696 19.5381 16.2478C19.8048 16.7697 20.054 17.327 20.1989 17.9368L20.9286 17.7634ZM19.8154 19V18.25H19.1846V19V19.75H19.8154V19ZM18.0714 17.7634L17.3417 17.5901C17.2184 18.1094 17.1443 18.7964 17.6335 19.287C17.8626 19.5168 18.1451 19.6247 18.3939 19.6799C18.6419 19.7349 18.914 19.75 19.1846 19.75V19V18.25C18.9563 18.25 18.8101 18.2358 18.7186 18.2155C18.628 18.1954 18.6499 18.1821 18.6957 18.228C18.7534 18.2858 18.7542 18.3398 18.7514 18.3095C18.747 18.2626 18.7504 18.1504 18.8011 17.9368L18.0714 17.7634ZM20.9286 17.7634L20.1989 17.9368C20.2496 18.1504 20.253 18.2626 20.2486 18.3095C20.2458 18.3398 20.2466 18.2858 20.3043 18.228C20.3501 18.1821 20.372 18.1954 20.2814 18.2155C20.1899 18.2358 20.0437 18.25 19.8154 18.25V19V19.75C20.086 19.75 20.3581 19.7349 20.6061 19.6799C20.8549 19.6247 21.1374 19.5168 21.3665 19.287C21.8557 18.7964 21.7816 18.1094 21.6583 17.5901L20.9286 17.7634Z" fill="#323232"/>
</svg>
