<svg width="83" height="83" viewBox="0 0 83 83" fill="none" xmlns="http://www.w3.org/2000/svg">
<g filter="url(#filter0_d_11247_4950)">
<circle cx="41.5" cy="37.5" r="37.5" fill="white"/>
<g clip-path="url(#clip0_11247_4950)">
<path d="M50.6757 47.0471C51.6715 46.765 52.2929 44.6456 51.8297 43.6279C50.9266 41.6419 44.8398 42.694 42.6127 42.431C39.3667 42.0498 37.4214 39.6522 33.6891 39.7818C27.4364 39.9991 24.6458 46.1208 19.991 48.9606C19.8366 49.5209 20.1454 49.5933 20.3654 49.9135C20.8016 50.5424 26.3827 56.0428 26.8188 56.1572C28.961 55.4406 29.9298 53.8053 32.5312 53.5271C41.9798 52.5208 46.9935 57.6819 55.5003 50.6721C56.7624 49.6314 64.8833 41.6915 65.2538 40.8339C65.6243 39.9762 64.8485 39.1414 64.1267 38.7107L56.0754 44.3712L55.2996 42.0765C57.7467 40.8148 61.6643 36.2978 64.4664 36.8277C66.6664 37.2432 68.0907 39.5226 67.1682 41.6115C66.2534 43.6889 57.6463 51.7584 55.4617 53.3022C46.484 59.6488 41.8678 54.3542 32.9056 55.4215C30.2887 55.7341 28.7139 58.7683 26.7609 58.4938C26.1627 58.41 18.3198 50.8283 18.1306 50.2032C17.9917 49.7496 17.9685 49.2426 18.0496 48.7776C18.1885 47.9962 23.4069 42.957 24.4335 42.0994C28.0887 39.0385 31.2498 37.2012 36.2944 37.9865C38.2281 38.2876 40.2352 39.9152 41.8138 40.1592C45.9398 40.7995 54.6936 38.3371 53.9564 45.3356C53.8445 46.4181 52.428 48.9491 51.436 48.9491H37.9271C37.2014 48.9491 37.2014 47.0432 37.9271 47.0432H50.6641L50.6757 47.0471Z" fill="#FFA228"/>
<path d="M34.793 15.1613C37.4678 12.333 42.2808 12.6684 44.944 15.3709C55.0294 8.80706 61.4713 19.0264 54.3347 27.7935C53.0841 29.3297 47.3525 34.7805 45.7275 35.3332C44.6044 35.7182 41.2696 33.0195 40.2661 32.1733C35.7541 28.3729 29.4859 20.7722 34.793 15.1651V15.1613ZM45.8009 18.0239C44.6198 18.7024 43.9637 16.6784 43.3538 16.1638C41.3313 14.4447 37.6029 14.6963 35.8737 16.8042C31.3 22.377 40.6057 30.8582 45.2837 33.3244C49.8613 30.3246 57.5382 24.0313 55.0757 17.9286C54.0027 15.2642 50.6216 14.3151 48.0627 15.5005C46.8584 16.0609 45.9668 17.9325 45.8009 18.0278V18.0239Z" fill="#0D0D0D"/>
</g>
</g>
<defs>
<filter id="filter0_d_11247_4950" x="0" y="0" width="83" height="83" filterUnits="userSpaceOnUse" color-interpolation-filters="sRGB">
<feFlood flood-opacity="0" result="BackgroundImageFix"/>
<feColorMatrix in="SourceAlpha" type="matrix" values="0 0 0 0 0 0 0 0 0 0 0 0 0 0 0 0 0 0 127 0" result="hardAlpha"/>
<feOffset dy="4"/>
<feGaussianBlur stdDeviation="2"/>
<feComposite in2="hardAlpha" operator="out"/>
<feColorMatrix type="matrix" values="0 0 0 0 0.530161 0 0 0 0 0.530161 0 0 0 0 0.530161 0 0 0 0.25 0"/>
<feBlend mode="normal" in2="BackgroundImageFix" result="effect1_dropShadow_11247_4950"/>
<feBlend mode="normal" in="SourceGraphic" in2="effect1_dropShadow_11247_4950" result="shape"/>
</filter>
<clipPath id="clip0_11247_4950">
<rect width="49.4506" height="45.3297" fill="white" transform="translate(18.011 13.187)"/>
</clipPath>
</defs>
</svg>
