<svg width="83" height="83" viewBox="0 0 83 83" fill="none" xmlns="http://www.w3.org/2000/svg">
<g filter="url(#filter0_d_11274_647)">
<circle cx="41.5" cy="37.5" r="37.5" fill="white"/>
<g clip-path="url(#clip0_11274_647)">
<path d="M50.6752 18.5236L49.3684 20.2452C30.095 11.9411 11.9927 34.8799 25.2521 51.1029C40.1083 69.277 69.1013 51.8656 59.8412 30.5447L61.5923 29.26C67.2899 42.288 59.7432 57.5114 45.4256 60.1918C33.2319 62.4724 21.1323 54.4312 19.1477 42.2954C16.2481 24.61 34.1282 11.5894 50.6752 18.5236Z" fill="#FFA228"/>
<path d="M48.7283 25.2431L48.7886 27.4015C47.3199 27.1386 46.1412 26.0687 44.6725 25.7133C33.2508 22.9366 23.648 34.6726 29.2816 44.9165C36.8923 58.7516 58.8546 50.1774 53.959 34.3542C53.605 33.2028 52.7012 32.2921 52.5581 31.1073L54.5653 31.0888C62.1007 44.2501 48.2162 58.6443 34.2261 52.2728C30.4528 50.555 26.7284 45.8939 25.9903 41.8585C23.5764 28.6639 36.6852 19.1678 48.7283 25.2394V25.2431Z" fill="#FFA228"/>
<path d="M58.5834 21.4816H64.4205L64.9891 22.3886C64.9665 22.7996 64.7405 23.1179 64.556 23.4659C64.3715 23.814 59.5061 28.7157 59.1709 28.9045C57.4123 29.9004 53.8649 28.7379 51.8125 29.445L41.6335 39.4557C39.6527 39.4261 40.2213 38.445 41.0649 37.3899C43.6105 34.206 47.7944 31.3294 50.4794 28.1381C51.2928 25.9834 49.8279 22.7255 51.048 20.9225C51.4284 20.3598 56.0829 15.8505 56.5951 15.5618C57.175 15.2397 58.5834 14.9842 58.5834 15.7395V21.4779V21.4816ZM56.7005 18.5198C56.3315 18.1089 52.4113 21.9777 52.2606 22.4812C52.0384 23.2142 52.0121 27.2533 52.5355 27.6124C53.8988 27.7383 56.3277 28.0604 57.5667 27.6976C57.8717 27.6087 61.4793 24.1509 61.5961 23.8806C61.7543 23.0439 61.227 23.3697 60.6659 23.329C59.7433 23.266 57.3219 23.6214 56.87 22.9847L56.7043 18.5198H56.7005Z" fill="#040404"/>
<path d="M45.0265 30.7408C44.3976 33.5692 42.4657 31.733 40.4322 31.9292C35.5743 32.3919 32.7574 38.1452 35.4425 42.1991C39.1104 47.7301 48.073 45.009 48.0391 38.7005C48.0316 37.053 46.3257 35.45 49.1651 34.8132C53.2284 43.6947 41.6297 51.4694 34.8625 44.6203C28.182 37.8564 36.1617 26.8016 45.0265 30.7445V30.7408Z" fill="#FFA228"/>
</g>
</g>
<defs>
<filter id="filter0_d_11274_647" x="0" y="0" width="83" height="83" filterUnits="userSpaceOnUse" color-interpolation-filters="sRGB">
<feFlood flood-opacity="0" result="BackgroundImageFix"/>
<feColorMatrix in="SourceAlpha" type="matrix" values="0 0 0 0 0 0 0 0 0 0 0 0 0 0 0 0 0 0 127 0" result="hardAlpha"/>
<feOffset dy="4"/>
<feGaussianBlur stdDeviation="2"/>
<feComposite in2="hardAlpha" operator="out"/>
<feColorMatrix type="matrix" values="0 0 0 0 0.530161 0 0 0 0 0.530161 0 0 0 0 0.530161 0 0 0 0.25 0"/>
<feBlend mode="normal" in2="BackgroundImageFix" result="effect1_dropShadow_11274_647"/>
<feBlend mode="normal" in="SourceGraphic" in2="effect1_dropShadow_11274_647" result="shape"/>
</filter>
<clipPath id="clip0_11274_647">
<rect width="46.1538" height="45.3297" fill="white" transform="translate(18.8352 15.2471)"/>
</clipPath>
</defs>
</svg>
