<svg width="400" height="599" viewBox="0 0 400 599" fill="none" xmlns="http://www.w3.org/2000/svg">
<g clip-path="url(#clip0_10345_4877)">
<path d="M378.52 427.651L400 402.167V37.314C400 16.7033 383.289 0 362.668 0H37.8048C17.1841 0 0.472656 16.7033 0.472656 37.314V201.148L378.52 427.651Z" fill="#FFC444"/>
<path d="M395.231 462.948V560.14C395.231 579.205 379.766 594.684 360.67 594.684H38.8573C19.7831 594.684 4.29599 579.226 4.29599 560.14V254.779L0 254.693V561.686C0 582.297 16.7114 599 37.3322 599H362.217C382.837 599 399.549 582.297 399.549 561.686V462.948H395.253H395.231Z" fill="#FFC444"/>
</g>
<defs>
<clipPath id="clip0_10345_4877">
<rect width="400" height="599" fill="white"/>
</clipPath>
</defs>
</svg>
