<?xml version="1.0" encoding="UTF-8"?>
<svg id="Layer_2" data-name="Layer 2" xmlns="http://www.w3.org/2000/svg" xmlns:xlink="http://www.w3.org/1999/xlink" viewBox="0 0 1535.15 665.86">
  <defs>
    <style>
      .cls-1 {
        fill: none;
      }

      .cls-2 {
        fill: #45a046;
      }

      .cls-3 {
        fill: #bd3f27;
      }

      .cls-4 {
        fill: #5fc7cd;
      }

      .cls-5 {
        fill: #c0852b;
      }

      .cls-6 {
        fill: url(#linear-gradient-2);
      }

      .cls-7 {
        fill: #fcda00;
      }

      .cls-8 {
        fill: url(#linear-gradient);
      }

      .cls-9 {
        fill: #a1cd3a;
      }

      .cls-10 {
        fill: #57caef;
      }

      .cls-11 {
        fill: #fcdc00;
      }

      .cls-12 {
        fill: #fcc017;
      }

      .cls-13 {
        fill: #fbbf16;
      }

      .cls-14 {
        fill: #f15648;
      }

      .cls-15 {
        fill: #fdb61a;
      }

      .cls-16 {
        fill: #62bc47;
      }

      .cls-17 {
        fill: #159292;
      }

      .cls-18 {
        fill: #ef4328;
      }

      .cls-19 {
        clip-path: url(#clippath);
      }

      .cls-20 {
        fill: #fcd900;
      }
    </style>
    <clipPath id="clippath">
      <path class="cls-1" d="M384.89,120.39H86.74c-27.59,0-49.96,22.37-49.96,49.96v129.46h72.52v72.08h72.29v71.68h72.21v72.08h131.08c27.59,0,49.96-22.37,49.96-49.96V170.36c0-27.59-22.37-49.96-49.96-49.96h.01Z"/>
    </clipPath>
    <linearGradient id="linear-gradient" x1="127.7" y1="2774.48" x2="434.7" y2="3032.09" gradientTransform="translate(0 3183.22) scale(1 -1)" gradientUnits="userSpaceOnUse">
      <stop offset=".2" stop-color="#fbdd00"/>
      <stop offset=".28" stop-color="#fbdd00" stop-opacity=".95"/>
      <stop offset=".4" stop-color="#fbdd00" stop-opacity=".82"/>
      <stop offset=".58" stop-color="#fbdd00" stop-opacity=".61"/>
      <stop offset=".79" stop-color="#fbdd00" stop-opacity=".32"/>
      <stop offset="1" stop-color="#fbdd00" stop-opacity="0"/>
    </linearGradient>
    <linearGradient id="linear-gradient-2" x1="617.51" y1="2736.94" x2="1534.45" y2="2736.94" gradientTransform="translate(0 3183.22) scale(1 -1)" gradientUnits="userSpaceOnUse">
      <stop offset="0" stop-color="#fbd50c"/>
      <stop offset="1" stop-color="#f9bf1a"/>
    </linearGradient>
  </defs>
  <g id="Layer_1-2" data-name="Layer 1">
    <g>
      <g>
        <path d="M617.31,180.94c0-8.86,1.69-17.18,5.08-24.95,3.39-7.77,7.99-14.57,13.82-20.4s12.63-10.43,20.4-13.82c7.77-3.39,16.09-5.08,24.95-5.08h98.31v42.88h-98.31c-2.99,0-5.78.55-8.37,1.64-2.59,1.1-4.86,2.61-6.8,4.56s-3.46,4.21-4.56,6.8c-1.1,2.59-1.64,5.38-1.64,8.37s.55,5.8,1.64,8.44c1.09,2.64,2.61,4.93,4.56,6.87s4.21,3.46,6.8,4.56c2.59,1.1,5.38,1.64,8.37,1.64h42.88c8.86,0,17.21,1.67,25.03,5.01,7.82,3.34,14.64,7.92,20.47,13.75,5.83,5.83,10.41,12.65,13.75,20.47,3.34,7.82,5.01,16.16,5.01,25.03s-1.67,17.18-5.01,24.95c-3.34,7.77-7.92,14.57-13.75,20.4-5.83,5.83-12.65,10.44-20.47,13.82-7.82,3.39-16.16,5.08-25.03,5.08h-95.18v-42.88h95.18c2.99,0,5.78-.55,8.37-1.64,2.59-1.09,4.86-2.61,6.8-4.56s3.46-4.21,4.56-6.8c1.09-2.59,1.64-5.38,1.64-8.37s-.55-5.78-1.64-8.37c-1.1-2.59-2.62-4.86-4.56-6.8s-4.21-3.46-6.8-4.56c-2.59-1.09-5.38-1.64-8.37-1.64h-42.88c-8.87,0-17.18-1.69-24.95-5.08-7.77-3.39-14.57-7.99-20.4-13.82s-10.44-12.65-13.82-20.47c-3.39-7.82-5.08-16.16-5.08-25.03Z"/>
        <path d="M906.79,330.95h-42.73v-171.38h-64.4v-42.88h171.38v42.88h-64.25v171.38Z"/>
        <path d="M1143.69,330.95h-146.87V116.69h146.87v42.88h-103.99v42.88h70.37v42.88h-70.37v42.73h103.99v42.88Z"/>
        <path d="M1219.66,330.95h-42.88V116.69h85.76c7.87,0,15.44,1.02,22.71,3.06,7.27,2.04,14.07,4.93,20.4,8.67,6.32,3.74,12.1,8.22,17.33,13.45,5.23,5.23,9.71,11.03,13.45,17.41,3.73,6.38,6.62,13.2,8.67,20.47,2.04,7.27,3.06,14.84,3.06,22.71,0,11.75-2.24,22.84-6.72,33.24-4.48,10.41-10.61,19.5-18.38,27.27s-16.86,13.9-27.27,18.38c-10.41,4.48-21.49,6.72-33.25,6.72h-42.88v42.88ZM1219.66,159.58v85.76h42.88c5.88,0,11.4-1.12,16.58-3.36,5.18-2.24,9.71-5.3,13.6-9.19s6.95-8.44,9.19-13.67c2.24-5.23,3.36-10.78,3.36-16.66s-1.12-11.43-3.36-16.66c-2.24-5.23-5.3-9.79-9.19-13.67s-8.42-6.95-13.6-9.19c-5.18-2.24-10.71-3.36-16.58-3.36h-42.88Z"/>
        <path d="M1363.77,180.94c0-8.86,1.69-17.18,5.08-24.95,3.38-7.77,7.99-14.57,13.82-20.4,5.83-5.83,12.62-10.43,20.39-13.82,7.77-3.39,16.08-5.08,24.95-5.08h98.31v42.88h-98.31c-2.99,0-5.78.55-8.37,1.64-2.59,1.1-4.86,2.61-6.8,4.56-1.94,1.94-3.46,4.21-4.56,6.8-1.1,2.59-1.64,5.38-1.64,8.37s.55,5.8,1.64,8.44c1.09,2.64,2.61,4.93,4.56,6.87,1.94,1.94,4.21,3.46,6.8,4.56,2.59,1.1,5.38,1.64,8.37,1.64h42.88c8.86,0,17.21,1.67,25.03,5.01,7.82,3.34,14.64,7.92,20.47,13.75,5.83,5.83,10.41,12.65,13.75,20.47,3.34,7.82,5.01,16.16,5.01,25.03s-1.67,17.18-5.01,24.95c-3.34,7.77-7.92,14.57-13.75,20.4-5.83,5.83-12.65,10.44-20.47,13.82-7.82,3.39-16.16,5.08-25.03,5.08h-95.18v-42.88h95.18c2.99,0,5.78-.55,8.37-1.64,2.59-1.09,4.86-2.61,6.8-4.56,1.94-1.94,3.46-4.21,4.56-6.8,1.09-2.59,1.64-5.38,1.64-8.37s-.55-5.78-1.64-8.37c-1.1-2.59-2.62-4.86-4.56-6.8-1.94-1.94-4.21-3.46-6.8-4.56-2.59-1.09-5.38-1.64-8.37-1.64h-42.88c-8.87,0-17.18-1.69-24.95-5.08-7.77-3.39-14.57-7.99-20.39-13.82-5.83-5.83-10.44-12.65-13.82-20.47-3.39-7.82-5.08-16.16-5.08-25.03Z"/>
      </g>
      <rect y="84.01" width="470.49" height="470.05" rx="70" ry="70"/>
      <path class="cls-11" d="M384.32,120.39H86.17c-27.59,0-49.96,22.37-49.96,49.96v129.96h72.52v72.28h72.29v71.88h72.21v72.28h131.08c27.59,0,49.96-22.37,49.96-49.96V170.36c0-27.59-22.37-49.96-49.96-49.96h.01Z"/>
      <g class="cls-19">
        <rect class="cls-7" x="36.91" y="119.97" width="36.19" height="36"/>
        <rect class="cls-13" x="73.13" y="119.97" width="36.19" height="36"/>
        <rect class="cls-7" x="109.31" y="119.97" width="36.19" height="36"/>
        <rect class="cls-12" x="145.48" y="119.97" width="36.19" height="36"/>
        <rect class="cls-12" x="217.85" y="119.97" width="36.19" height="36"/>
        <rect class="cls-20" x="181.67" y="119.97" width="36.19" height="36"/>
        <rect class="cls-13" x="36.93" y="155.97" width="36.19" height="36"/>
        <rect class="cls-7" x="73.13" y="155.97" width="36.19" height="36"/>
        <rect class="cls-13" x="109.31" y="155.97" width="36.19" height="36"/>
        <rect class="cls-7" x="145.5" y="155.97" width="36.19" height="36"/>
        <rect class="cls-7" x="217.86" y="155.97" width="36.19" height="36"/>
        <rect class="cls-13" x="181.67" y="155.97" width="36.19" height="36"/>
        <rect class="cls-7" x="36.93" y="191.96" width="36.19" height="36"/>
        <rect class="cls-13" x="73.13" y="191.96" width="36.19" height="36"/>
        <rect class="cls-7" x="109.31" y="191.96" width="36.19" height="36"/>
        <rect class="cls-12" x="145.48" y="191.96" width="36.19" height="36"/>
        <rect class="cls-12" x="217.85" y="191.96" width="36.19" height="36"/>
        <rect class="cls-20" x="181.67" y="191.96" width="36.19" height="36"/>
        <rect class="cls-13" x="36.93" y="227.97" width="36.19" height="36"/>
        <rect class="cls-7" x="73.15" y="227.97" width="36.19" height="36"/>
        <rect class="cls-13" x="109.31" y="227.97" width="36.19" height="36"/>
        <rect class="cls-7" x="145.5" y="227.97" width="36.19" height="36"/>
        <rect class="cls-7" x="217.86" y="227.97" width="36.19" height="36"/>
        <rect class="cls-13" x="181.67" y="227.97" width="36.19" height="36"/>
        <rect class="cls-7" x="36.93" y="263.97" width="36.19" height="36"/>
        <rect class="cls-13" x="73.13" y="263.97" width="36.19" height="36"/>
        <rect class="cls-7" x="109.31" y="263.97" width="36.19" height="36"/>
        <rect class="cls-12" x="145.48" y="263.97" width="36.19" height="36"/>
        <rect class="cls-12" x="217.86" y="263.97" width="36.19" height="36"/>
        <rect class="cls-20" x="181.67" y="263.97" width="36.19" height="36"/>
        <rect class="cls-13" x="36.93" y="299.96" width="36.19" height="36"/>
        <rect class="cls-7" x="73.15" y="299.96" width="36.19" height="36"/>
        <rect class="cls-13" x="109.31" y="299.96" width="36.19" height="36"/>
        <rect class="cls-7" x="145.5" y="299.96" width="36.19" height="36"/>
        <rect class="cls-7" x="217.86" y="299.96" width="36.19" height="36"/>
        <rect class="cls-13" x="181.69" y="299.96" width="36.19" height="36"/>
        <rect class="cls-7" x="36.93" y="335.97" width="36.19" height="36"/>
        <rect class="cls-13" x="73.13" y="335.97" width="36.19" height="36"/>
        <rect class="cls-7" x="109.31" y="335.97" width="36.19" height="36"/>
        <rect class="cls-12" x="145.5" y="335.97" width="36.19" height="36"/>
        <rect class="cls-12" x="217.86" y="335.97" width="36.19" height="36"/>
        <rect class="cls-20" x="181.67" y="335.97" width="36.19" height="36"/>
        <rect class="cls-13" x="36.94" y="371.97" width="36.19" height="36"/>
        <rect class="cls-7" x="73.15" y="371.97" width="36.19" height="36"/>
        <rect class="cls-13" x="109.32" y="371.97" width="36.19" height="36"/>
        <rect class="cls-7" x="145.5" y="371.97" width="36.19" height="36"/>
        <rect class="cls-7" x="217.86" y="371.97" width="36.19" height="36"/>
        <rect class="cls-13" x="181.69" y="371.97" width="36.19" height="36"/>
        <rect class="cls-7" x="254.05" y="119.97" width="36.19" height="36"/>
        <rect class="cls-13" x="290.25" y="119.97" width="36.19" height="36"/>
        <rect class="cls-7" x="326.43" y="119.97" width="36.19" height="36"/>
        <rect class="cls-12" x="362.61" y="119.97" width="36.19" height="36"/>
        <rect class="cls-20" x="398.79" y="119.97" width="36.19" height="36"/>
        <rect class="cls-13" x="254.05" y="155.97" width="36.19" height="36"/>
        <rect class="cls-7" x="290.27" y="155.97" width="36.19" height="36"/>
        <rect class="cls-13" x="326.43" y="155.97" width="36.19" height="36"/>
        <rect class="cls-7" x="362.62" y="155.97" width="36.19" height="36"/>
        <rect class="cls-13" x="398.81" y="155.97" width="36.19" height="36"/>
        <rect class="cls-7" x="254.05" y="191.96" width="36.19" height="36"/>
        <rect class="cls-13" x="290.27" y="191.96" width="36.19" height="36"/>
        <rect class="cls-7" x="326.43" y="191.96" width="36.19" height="36"/>
        <rect class="cls-12" x="362.62" y="191.96" width="36.19" height="36"/>
        <rect class="cls-20" x="398.79" y="191.96" width="36.19" height="36"/>
        <rect class="cls-13" x="254.07" y="227.97" width="36.19" height="36"/>
        <rect class="cls-7" x="290.27" y="227.97" width="36.19" height="36"/>
        <rect class="cls-13" x="326.44" y="227.97" width="36.19" height="36"/>
        <rect class="cls-7" x="362.62" y="227.97" width="36.19" height="36"/>
        <rect class="cls-13" x="398.81" y="227.97" width="36.19" height="36"/>
        <rect class="cls-7" x="254.05" y="263.97" width="36.19" height="36"/>
        <rect class="cls-13" x="290.27" y="263.97" width="36.19" height="36"/>
        <rect class="cls-7" x="326.43" y="263.97" width="36.19" height="36"/>
        <rect class="cls-12" x="362.62" y="263.97" width="36.19" height="36"/>
        <rect class="cls-20" x="398.79" y="263.97" width="36.19" height="36"/>
        <rect class="cls-13" x="254.07" y="299.96" width="36.19" height="36"/>
        <rect class="cls-7" x="290.27" y="299.96" width="36.19" height="36"/>
        <rect class="cls-13" x="326.44" y="299.96" width="36.19" height="36"/>
        <rect class="cls-7" x="362.62" y="299.96" width="36.19" height="36"/>
        <rect class="cls-13" x="398.81" y="299.96" width="36.19" height="36"/>
        <rect class="cls-7" x="254.07" y="335.97" width="36.19" height="36"/>
        <rect class="cls-13" x="290.27" y="335.97" width="36.19" height="36"/>
        <rect class="cls-7" x="326.44" y="335.97" width="36.19" height="36"/>
        <rect class="cls-12" x="362.62" y="335.97" width="36.19" height="36"/>
        <rect class="cls-20" x="398.81" y="335.97" width="36.19" height="36"/>
        <rect class="cls-13" x="254.07" y="371.97" width="36.19" height="36"/>
        <rect class="cls-7" x="290.27" y="371.97" width="36.19" height="36"/>
        <rect class="cls-13" x="326.44" y="371.97" width="36.19" height="36"/>
        <rect class="cls-7" x="362.63" y="371.97" width="36.19" height="36"/>
        <rect class="cls-13" x="398.81" y="371.97" width="36.19" height="36"/>
        <rect class="cls-7" x="36.94" y="407.81" width="36.19" height="36"/>
        <rect class="cls-13" x="73.15" y="407.81" width="36.19" height="36"/>
        <rect class="cls-7" x="109.32" y="407.81" width="36.19" height="36"/>
        <rect class="cls-12" x="145.5" y="407.81" width="36.19" height="36"/>
        <rect class="cls-12" x="217.86" y="407.81" width="36.19" height="36"/>
        <rect class="cls-20" x="181.69" y="407.81" width="36.19" height="36"/>
        <rect class="cls-13" x="36.94" y="443.81" width="36.19" height="36"/>
        <rect class="cls-7" x="73.16" y="443.81" width="36.19" height="36"/>
        <rect class="cls-13" x="109.32" y="443.81" width="36.19" height="36"/>
        <rect class="cls-7" x="145.51" y="443.81" width="36.19" height="36"/>
        <rect class="cls-7" x="217.88" y="443.81" width="36.19" height="36"/>
        <rect class="cls-13" x="181.69" y="443.81" width="36.19" height="36"/>
        <rect class="cls-7" x="36.94" y="479.8" width="36.19" height="36"/>
        <rect class="cls-13" x="73.15" y="479.8" width="36.19" height="36"/>
        <rect class="cls-7" x="109.32" y="479.8" width="36.19" height="36"/>
        <rect class="cls-12" x="145.51" y="479.8" width="36.19" height="36"/>
        <rect class="cls-12" x="217.88" y="479.8" width="36.19" height="36"/>
        <rect class="cls-20" x="181.69" y="479.8" width="36.19" height="36"/>
        <rect class="cls-7" x="254.07" y="407.81" width="36.19" height="36"/>
        <rect class="cls-13" x="290.27" y="407.81" width="36.19" height="36"/>
        <rect class="cls-7" x="326.44" y="407.81" width="36.19" height="36"/>
        <rect class="cls-12" x="362.63" y="407.81" width="36.19" height="36"/>
        <rect class="cls-20" x="398.81" y="407.81" width="36.19" height="36"/>
        <rect class="cls-13" x="254.08" y="443.81" width="36.19" height="36"/>
        <rect class="cls-7" x="290.28" y="443.81" width="36.19" height="36"/>
        <rect class="cls-13" x="326.46" y="443.81" width="36.19" height="36"/>
        <rect class="cls-7" x="362.63" y="443.81" width="36.19" height="36"/>
        <rect class="cls-13" x="398.82" y="443.81" width="36.19" height="36"/>
        <rect class="cls-7" x="254.07" y="479.8" width="36.19" height="36"/>
        <rect class="cls-13" x="290.28" y="479.8" width="36.19" height="36"/>
        <rect class="cls-7" x="326.44" y="479.8" width="36.19" height="36"/>
        <rect class="cls-12" x="362.63" y="479.8" width="36.19" height="36"/>
        <rect class="cls-20" x="398.81" y="479.8" width="36.19" height="36"/>
      </g>
      <path class="cls-8" d="M385.38,120.08H86.25c-27.59,0-49.96,22.37-49.96,49.96v129.75h72.69v72.19h72.46v71.8h72.38v72.19h131.52c27.59,0,49.96-22.37,49.96-49.96V170.04c0-27.59-22.37-49.96-49.96-49.96h.03Z"/>
      <rect x="108.6" y="192.39" width="72.35" height="72.36"/>
      <rect x="289.54" y="192.39" width="72.35" height="72.36"/>
      <rect class="cls-14" x="235.81" y="444.52" width="17.37" height="72.25"/>
      <polygon class="cls-14" points="253.18 443.91 253.18 460.29 165.27 460.29 180.95 443.91 253.18 443.91"/>
      <polygon class="cls-10" points="180.95 443.91 165.27 460.29 165.27 372.67 181.26 372.67 180.95 443.91"/>
      <polygon class="cls-10" points="180.95 372.56 180.95 388.55 92.76 388.43 108.74 372.56 180.95 372.56"/>
      <polygon class="cls-16" points="108.75 372.6 92.76 388.43 92.76 300.03 108.75 300.03 108.75 372.6"/>
      <rect class="cls-16" x="35.88" y="300.02" width="72.88" height="15.99"/>
      <path d="M483,250.98h80.68v124.93c0,18.31-14.85,33.16-33.16,33.16h-47.5v-158.09h-.01Z"/>
      <rect x="209.08" width="53.2" height="47.83" rx="8.81" ry="8.81"/>
      <rect x="226.96" y="36.05" width="17.41" height="63.72"/>
      <path class="cls-4" d="M42.22,572.58l74.89,19.91s6.85,2.7,10.58-2.7l40.03-44.55c.55-.61.23-1.61-.58-1.78l-80.98-16.67c-.84-.17-1.71.1-2.29.74l-41.66,45.04h.01Z"/>
      <path class="cls-17" d="M167.73,545.26l.27,9.07-39.35,43.71s-2.77,3.45-13.42.7l-73.17-18.25.14-7.89,36.79,9.96,39.97,10.52s6.23,1.66,10.65-5.4l38.09-42.4h.03Z"/>
      <path class="cls-18" d="M94.51,614.03l42.23,43.85s3.33,1.66,7.89,0c4.56-1.66,63.91-23.03,63.91-23.03,0,0,2.9-.63,2.29-3.53l-41.29-40.87s-2.9-3.33-9.13-2.29l-61.42,21.36s-2.69.8-4.26,1.93c-.82.6-.91,1.82-.2,2.56h-.01Z"/>
      <path class="cls-3" d="M210.9,631.78l.37,7.83c.04.84-.47,1.61-1.27,1.89l-64.8,23.28s-6.65,3.82-13.13-2.98l-38.28-39.86c-.48-.51-.72-1.21-.64-1.92l.98-8.34,40.33,43.31s2.7,4.97,10.16,2.29l65.56-23.75"/>
      <path class="cls-9" d="M302.39,642.27l60.72-33.89s2.22-1.52,0-3.18l-58.65-22.27s-4.85-1.25-7.6,0l-59.06,26.84s-3.04,3.45,1.52,5.12l54.36,25.73s4.85,2.77,8.71,1.66h0Z"/>
      <path class="cls-2" d="M364.2,607.2v9.68l-57.7,33.33s-4.29,2.9-10.65,0l-58.95-26.55s-.44-7.21,0-11c0,0-.5,1.63,7.76,4.9l22.36,10.58,15.66,7.36,11.31,5.54s6.17,3.74,11.61-.31l36.46-20.38,20.64-11.57s.9-.17,1.48-1.59h0Z"/>
      <path class="cls-15" d="M217.75,529.79l-25.05,56.35,73.32,7.18s9.67,2.29,12.64-5.16l23.99-54.09-84.9-4.26h0Z"/>
      <path class="cls-5" d="M193.94,594.2l76.93,7.46s8.56,1.07,12.88-8.14l20.37-49.88-1.48-9.57-14.24,32.01-8.9,19.9s-1.69,7.72-11.54,7.55l-38.56-3.8-36.72-3.6,1.24,8.06h.03Z"/>
      <rect class="cls-6" x="617.51" y="357.68" width="916.93" height="177.19" rx="25.48" ry="25.48"/>
      <g>
        <path d="M722.63,489.73l-19.78-34.47h-10.75v34.47h-14.09v-86.18h29.67c6.59,0,12.18,1.16,16.75,3.47,4.57,2.32,7.99,5.42,10.26,9.3,2.27,3.89,3.4,8.23,3.4,13.02,0,5.62-1.63,10.73-4.88,15.31-3.26,4.59-8.26,7.71-15.02,9.36l21.26,35.71h-16.81ZM692.1,443.97h15.58c5.27,0,9.25-1.32,11.93-3.97,2.68-2.64,4.02-6.2,4.02-10.66s-1.32-7.96-3.96-10.48c-2.64-2.52-6.63-3.78-11.99-3.78h-15.58v28.89Z"/>
        <path d="M800.45,484.95c-6.72-3.76-12.03-9.01-15.95-15.75-3.92-6.74-5.87-14.32-5.87-22.75s1.96-16,5.87-22.69c3.91-6.7,9.23-11.92,15.95-15.69,6.72-3.76,14.07-5.64,22.07-5.64s15.47,1.88,22.19,5.64c6.72,3.76,12.01,8.99,15.88,15.69,3.87,6.7,5.81,14.26,5.81,22.69s-1.94,16.02-5.81,22.75c-3.88,6.74-9.17,11.99-15.88,15.75-6.72,3.76-14.11,5.64-22.19,5.64s-15.35-1.88-22.07-5.64ZM837.72,474.41c4.45-2.6,7.93-6.32,10.45-11.16,2.51-4.84,3.77-10.44,3.77-16.8s-1.26-11.94-3.77-16.74c-2.51-4.79-6-8.47-10.45-11.04-4.45-2.56-9.52-3.84-15.2-3.84s-10.75,1.28-15.21,3.84c-4.45,2.56-7.93,6.24-10.45,11.04-2.51,4.8-3.77,10.38-3.77,16.74s1.26,11.97,3.77,16.8c2.51,4.84,6,8.56,10.45,11.16s9.52,3.91,15.21,3.91,10.75-1.3,15.2-3.91Z"/>
        <path d="M965.16,452.77c3.21,4.05,4.82,8.64,4.82,13.76,0,4.38-1.13,8.33-3.4,11.84-2.27,3.51-5.54,6.28-9.83,8.31-4.29,2.03-9.27,3.04-14.96,3.04h-34.36v-86.18h32.76c5.85,0,10.88.99,15.08,2.98,4.2,1.98,7.38,4.65,9.52,8,2.14,3.35,3.21,7.09,3.21,11.22,0,4.96-1.32,9.09-3.96,12.4-2.64,3.31-6.18,5.75-10.63,7.32,4.61.83,8.53,3.27,11.74,7.32ZM921.53,439.75h17.43c4.61,0,8.22-1.05,10.82-3.16,2.6-2.11,3.89-5.15,3.89-9.11s-1.3-6.92-3.89-9.11c-2.6-2.19-6.2-3.29-10.82-3.29h-17.43v24.68ZM951.81,474.72c2.72-2.31,4.08-5.54,4.08-9.67s-1.44-7.56-4.33-10.04c-2.89-2.48-6.72-3.72-11.5-3.72h-18.54v26.91h19.04c4.78,0,8.53-1.16,11.25-3.47Z"/>
        <path d="M1029.63,484.95c-6.72-3.76-12.03-9.01-15.95-15.75-3.92-6.74-5.87-14.32-5.87-22.75s1.96-16,5.87-22.69c3.91-6.7,9.23-11.92,15.95-15.69,6.72-3.76,14.07-5.64,22.07-5.64s15.47,1.88,22.19,5.64c6.72,3.76,12.01,8.99,15.88,15.69,3.87,6.7,5.81,14.26,5.81,22.69s-1.94,16.02-5.81,22.75c-3.88,6.74-9.17,11.99-15.88,15.75-6.72,3.76-14.11,5.64-22.19,5.64s-15.35-1.88-22.07-5.64ZM1066.9,474.41c4.45-2.6,7.93-6.32,10.45-11.16,2.51-4.84,3.77-10.44,3.77-16.8s-1.26-11.94-3.77-16.74c-2.51-4.79-6-8.47-10.45-11.04-4.45-2.56-9.52-3.84-15.2-3.84s-10.75,1.28-15.21,3.84c-4.45,2.56-7.93,6.24-10.45,11.04-2.51,4.8-3.77,10.38-3.77,16.74s1.26,11.97,3.77,16.8c2.51,4.84,6,8.56,10.45,11.16s9.52,3.91,15.21,3.91,10.75-1.3,15.2-3.91Z"/>
        <path d="M1192.12,403.55v11.53h-22.87v74.65h-14.09v-74.65h-22.99v-11.53h59.95Z"/>
        <path d="M1247.62,403.55v86.18h-14.09v-86.18h14.09Z"/>
        <path d="M1294.53,423.76c3.91-6.7,9.23-11.92,15.95-15.69,6.72-3.76,14.07-5.64,22.07-5.64,9.15,0,17.28,2.25,24.41,6.76,7.13,4.51,12.3,10.89,15.51,19.16h-16.93c-2.23-4.55-5.32-7.94-9.27-10.17-3.96-2.23-8.53-3.35-13.72-3.35-5.69,0-10.75,1.28-15.21,3.84-4.45,2.56-7.93,6.24-10.45,11.04-2.51,4.8-3.77,10.38-3.77,16.74s1.26,11.95,3.77,16.74c2.51,4.8,6,8.49,10.45,11.1s9.52,3.91,15.21,3.91c5.19,0,9.77-1.12,13.72-3.35,3.96-2.23,7.05-5.62,9.27-10.17h16.93c-3.21,8.27-8.39,14.63-15.51,19.1-7.13,4.46-15.27,6.7-24.41,6.7-8.08,0-15.45-1.88-22.13-5.64-6.68-3.76-11.97-8.99-15.88-15.69-3.92-6.7-5.87-14.26-5.87-22.69s1.96-16,5.87-22.69Z"/>
        <path d="M1428.84,487.56c-4.62-2.02-8.24-4.9-10.88-8.62-2.64-3.72-3.96-8.06-3.96-13.02h15.08c.33,3.72,1.79,6.78,4.39,9.18,2.6,2.4,6.24,3.6,10.94,3.6s8.65-1.18,11.37-3.53,4.08-5.39,4.08-9.11c0-2.89-.85-5.25-2.53-7.07-1.69-1.82-3.79-3.22-6.3-4.22-2.51-.99-6-2.07-10.45-3.22-5.61-1.49-10.16-3-13.66-4.53-3.5-1.53-6.49-3.91-8.96-7.13-2.47-3.22-3.71-7.52-3.71-12.9,0-4.96,1.24-9.3,3.71-13.02,2.47-3.72,5.93-6.57,10.38-8.56,4.45-1.98,9.6-2.98,15.45-2.98,8.32,0,15.14,2.09,20.46,6.26,5.32,4.18,8.26,9.9,8.84,17.17h-15.58c-.25-3.14-1.73-5.83-4.45-8.06-2.72-2.23-6.3-3.35-10.75-3.35-4.04,0-7.34,1.03-9.89,3.1-2.55,2.07-3.83,5.04-3.83,8.93,0,2.65.8,4.82,2.41,6.51,1.61,1.7,3.65,3.04,6.12,4.03,2.47.99,5.85,2.07,10.14,3.22,5.69,1.57,10.32,3.14,13.91,4.71,3.58,1.57,6.63,3.99,9.15,7.25,2.51,3.27,3.77,7.63,3.77,13.08,0,4.38-1.17,8.52-3.52,12.4-2.35,3.89-5.77,7.01-10.26,9.36-4.49,2.36-9.79,3.53-15.88,3.53-5.77,0-10.96-1.01-15.58-3.04Z"/>
      </g>
    </g>
  </g>
</svg>